<svg width="128" height="128" viewBox="0 0 128 128" fill="none" xmlns="http://www.w3.org/2000/svg">
<g filter="url(#filter0_d_1556_471)">
<rect x="12.5" y="12.5" width="103" height="103" rx="23" fill="white"/>
<rect x="12.5" y="12.5" width="103" height="103" rx="23" fill="url(#paint0_linear_1556_471)" fill-opacity="0.2"/>
</g>
<mask id="mask0_1556_471" style="mask-type:alpha" maskUnits="userSpaceOnUse" x="12" y="12" width="104" height="104">
<rect x="12.5" y="12.5" width="103" height="103" rx="23" fill="white"/>
</mask>
<g mask="url(#mask0_1556_471)">
<rect x="4" y="4" width="120" height="120" fill="url(#paint1_linear_1556_471)"/>
<path d="M38 42C38 40.1362 38 39.2044 38.3045 38.4693C38.7105 37.4892 39.4892 36.7105 40.4693 36.3045C41.2044 36 42.1362 36 44 36V36C45.8638 36 46.7956 36 47.5307 36.3045C48.5108 36.7105 49.2895 37.4892 49.6955 38.4693C50 39.2044 50 40.1362 50 42V86C50 87.8638 50 88.7956 49.6955 89.5307C49.2895 90.5108 48.5108 91.2895 47.5307 91.6955C46.7956 92 45.8638 92 44 92V92C42.1362 92 41.2044 92 40.4693 91.6955C39.4892 91.2895 38.7105 90.5108 38.3045 89.5307C38 88.7956 38 87.8638 38 86V42Z" fill="url(#paint2_linear_1556_471)"/>
<rect x="58" y="38" width="12" height="52" rx="4" fill="url(#paint3_linear_1556_471)"/>
<path d="M78 42C78 40.1362 78 39.2044 78.3045 38.4693C78.7105 37.4892 79.4892 36.7105 80.4693 36.3045C81.2044 36 82.1362 36 84 36V36C85.8638 36 86.7956 36 87.5307 36.3045C88.5108 36.7105 89.2895 37.4892 89.6955 38.4693C90 39.2044 90 40.1362 90 42V86C90 87.8638 90 88.7956 89.6955 89.5307C89.2895 90.5108 88.5108 91.2895 87.5307 91.6955C86.7956 92 85.8638 92 84 92V92C82.1362 92 81.2044 92 80.4693 91.6955C79.4892 91.2895 78.7105 90.5108 78.3045 89.5307C78 88.7956 78 87.8638 78 86V42Z" fill="url(#paint4_linear_1556_471)"/>
</g>
<defs>
<filter id="filter0_d_1556_471" x="9.75" y="11.125" width="108.5" height="108.5" filterUnits="userSpaceOnUse" color-interpolation-filters="sRGB">
<feFlood flood-opacity="0" result="BackgroundImageFix"/>
<feColorMatrix in="SourceAlpha" type="matrix" values="0 0 0 0 0 0 0 0 0 0 0 0 0 0 0 0 0 0 127 0" result="hardAlpha"/>
<feOffset dy="1.375"/>
<feGaussianBlur stdDeviation="1.375"/>
<feColorMatrix type="matrix" values="0 0 0 0 0 0 0 0 0 0 0 0 0 0 0 0 0 0 0.28 0"/>
<feBlend mode="normal" in2="BackgroundImageFix" result="effect1_dropShadow_1556_471"/>
<feBlend mode="normal" in="SourceGraphic" in2="effect1_dropShadow_1556_471" result="shape"/>
</filter>
<linearGradient id="paint0_linear_1556_471" x1="64" y1="12.5" x2="64" y2="115.5" gradientUnits="userSpaceOnUse">
<stop stop-opacity="0"/>
<stop offset="1" stop-opacity="0.2"/>
</linearGradient>
<linearGradient id="paint1_linear_1556_471" x1="64" y1="4" x2="64" y2="124" gradientUnits="userSpaceOnUse">
<stop stop-color="#FF5858"/>
<stop offset="1" stop-color="#FF00C7"/>
</linearGradient>
<linearGradient id="paint2_linear_1556_471" x1="44" y1="36" x2="44" y2="92" gradientUnits="userSpaceOnUse">
<stop stop-color="white"/>
<stop offset="1" stop-color="white" stop-opacity="0.84"/>
</linearGradient>
<linearGradient id="paint3_linear_1556_471" x1="64" y1="38" x2="64" y2="90" gradientUnits="userSpaceOnUse">
<stop stop-color="white"/>
<stop offset="1" stop-color="white" stop-opacity="0.84"/>
</linearGradient>
<linearGradient id="paint4_linear_1556_471" x1="84" y1="36" x2="84" y2="92" gradientUnits="userSpaceOnUse">
<stop stop-color="white"/>
<stop offset="1" stop-color="white" stop-opacity="0.84"/>
</linearGradient>
</defs>
</svg>
